<svg width="422" height="102" viewBox="0 0 422 102" fill="none" xmlns="http://www.w3.org/2000/svg">
<circle cx="70" cy="-250" r="352" fill="#299A16" fill-opacity="0.8"/>
<path d="M54.312 32.648L52.404 34.772V41H44.052V15.8H52.404V24.944L60.684 15.8H69.936L59.856 26.888L70.44 41H60.612L54.312 32.648ZM92.5313 34.592V41H71.5793V15.8H92.0633V22.208H79.9313V25.16H90.5873V31.28H79.9313V34.592H92.5313ZM102.174 41.576C100.206 41.576 98.418 41.264 96.81 40.64C95.226 39.992 93.918 39.056 92.886 37.832L97.458 32.432C98.13 33.272 98.79 33.896 99.438 34.304C100.086 34.712 100.758 34.916 101.454 34.916C102.342 34.916 103.014 34.652 103.47 34.124C103.95 33.596 104.19 32.816 104.19 31.784V22.208H95.622V15.8H112.578V31.28C112.578 34.712 111.69 37.292 109.914 39.02C108.162 40.724 105.582 41.576 102.174 41.576ZM133.119 36.608H123.543L121.851 41H113.211L124.227 15.8H132.579L143.595 41H134.811L133.119 36.608ZM130.779 30.488L128.331 24.152L125.883 30.488H130.779Z" fill="#283C5B"/>
<path d="M168.775 41.576C166.111 41.576 163.711 41.024 161.575 39.92C159.439 38.792 157.759 37.232 156.535 35.24C155.335 33.224 154.735 30.944 154.735 28.4C154.735 25.856 155.335 23.588 156.535 21.596C157.759 19.58 159.439 18.02 161.575 16.916C163.711 15.788 166.111 15.224 168.775 15.224C171.223 15.224 173.407 15.656 175.327 16.52C177.247 17.384 178.831 18.632 180.079 20.264L174.715 25.052C173.155 23.084 171.319 22.1 169.207 22.1C167.431 22.1 166.003 22.676 164.923 23.828C163.843 24.956 163.303 26.48 163.303 28.4C163.303 30.32 163.843 31.856 164.923 33.008C166.003 34.136 167.431 34.7 169.207 34.7C171.319 34.7 173.155 33.716 174.715 31.748L180.079 36.536C178.831 38.168 177.247 39.416 175.327 40.28C173.407 41.144 171.223 41.576 168.775 41.576ZM207.372 15.8V41H198.876V31.712H191.028V41H182.532V15.8H191.028V24.728H198.876V15.8H207.372ZM228.638 36.608H219.062L217.37 41H208.73L219.746 15.8H228.098L239.114 41H230.33L228.638 36.608ZM226.298 30.488L223.85 24.152L221.402 30.488H226.298ZM252.602 15.8C254.93 15.8 256.958 16.184 258.686 16.952C260.414 17.72 261.746 18.824 262.682 20.264C263.618 21.704 264.086 23.384 264.086 25.304C264.086 27.224 263.618 28.904 262.682 30.344C261.746 31.784 260.414 32.888 258.686 33.656C256.958 34.424 254.93 34.808 252.602 34.808H248.966V41H240.47V15.8H252.602ZM252.062 28.256C253.214 28.256 254.078 28.004 254.654 27.5C255.23 26.972 255.518 26.24 255.518 25.304C255.518 24.368 255.23 23.648 254.654 23.144C254.078 22.616 253.214 22.352 252.062 22.352H248.966V28.256H252.062ZM57.084 81.576C54.42 81.576 52.02 81.024 49.884 79.92C47.748 78.792 46.068 77.232 44.844 75.24C43.644 73.224 43.044 70.944 43.044 68.4C43.044 65.856 43.644 63.588 44.844 61.596C46.068 59.58 47.748 58.02 49.884 56.916C52.02 55.788 54.42 55.224 57.084 55.224C59.532 55.224 61.716 55.656 63.636 56.52C65.556 57.384 67.14 58.632 68.388 60.264L63.024 65.052C61.464 63.084 59.628 62.1 57.516 62.1C55.74 62.1 54.312 62.676 53.232 63.828C52.152 64.956 51.612 66.48 51.612 68.4C51.612 70.32 52.152 71.856 53.232 73.008C54.312 74.136 55.74 74.7 57.516 74.7C59.628 74.7 61.464 73.716 63.024 71.748L68.388 76.536C67.14 78.168 65.556 79.416 63.636 80.28C61.716 81.144 59.532 81.576 57.084 81.576ZM95.6811 55.8V81H87.1851V71.712H79.3371V81H70.8411V55.8H79.3371V64.728H87.1851V55.8H95.6811ZM116.947 76.608H107.371L105.679 81H97.0387L108.055 55.8H116.407L127.423 81H118.639L116.947 76.608ZM114.607 70.488L112.159 64.152L109.711 70.488H114.607ZM140.911 55.8C143.239 55.8 145.267 56.184 146.995 56.952C148.723 57.72 150.055 58.824 150.991 60.264C151.927 61.704 152.395 63.384 152.395 65.304C152.395 67.224 151.927 68.904 150.991 70.344C150.055 71.784 148.723 72.888 146.995 73.656C145.267 74.424 143.239 74.808 140.911 74.808H137.275V81H128.779V55.8H140.911ZM140.371 68.256C141.523 68.256 142.387 68.004 142.963 67.5C143.539 66.972 143.827 66.24 143.827 65.304C143.827 64.368 143.539 63.648 142.963 63.144C142.387 62.616 141.523 62.352 140.371 62.352H137.275V68.256H140.371Z" fill="white"/>
</svg>
