<svg width="353" height="353" viewBox="0 0 353 353" fill="none" xmlns="http://www.w3.org/2000/svg">
<path d="M176.5 353C273.978 353 353 273.978 353 176.5C353 176.5 235.049 299.794 184.803 180.081C134.557 60.3681 0 176.5 0 176.5C0 273.978 79.0217 353 176.5 353Z" fill="#FFC300"/>
<path d="M176.5 0C79.0217 0 0 79.0217 0 176.5C0 176.5 134.557 60.3681 184.803 180.081C235.049 299.794 353 176.5 353 176.5C353 79.0217 273.978 0 176.5 0Z" fill="#003566"/>
<path d="M53.2317 204.732C58.5117 204.732 63.1437 205.764 67.1277 207.828C71.1597 209.892 74.2557 212.844 76.4157 216.684C78.6237 220.476 79.7277 224.892 79.7277 229.932C79.7277 234.972 78.6237 239.388 76.4157 243.18C74.2557 246.924 71.1597 249.828 67.1277 251.892C63.1437 253.956 58.5117 254.988 53.2317 254.988H35.6637V204.732H53.2317ZM52.8717 246.42C58.1517 246.42 62.2317 244.98 65.1117 242.1C67.9917 239.22 69.4317 235.164 69.4317 229.932C69.4317 224.7 67.9917 220.62 65.1117 217.692C62.2317 214.716 58.1517 213.228 52.8717 213.228H45.7437V246.42H52.8717ZM97.3531 212.868V225.468H114.273V233.46H97.3531V246.78H116.433V254.988H87.2731V204.66H116.433V212.868H97.3531ZM170.737 204.732L152.305 254.988H140.065L121.633 204.732H132.433L146.257 244.692L160.009 204.732H170.737Z" fill="#003566"/>
<path d="M230.811 174.157L212.523 151.765V174.157H202.443V123.901H212.523V146.437L230.811 123.901H242.979L222.243 148.813L243.555 174.157H230.811ZM260.266 132.037V144.637H277.186V152.629H260.266V165.949H279.346V174.157H250.186V123.829H279.346V132.037H260.266ZM333.65 123.901L315.218 174.157H302.978L284.546 123.901H295.346L309.17 163.861L322.922 123.901H333.65Z" fill="#FFC300"/>
</svg>
